<?xml version="1.0" encoding="utf-8"?>
<!-- Generator: Adobe Illustrator 25.1.0, SVG Export Plug-In . SVG Version: 6.00 Build 0)  -->
<!DOCTYPE svg PUBLIC "-//W3C//DTD SVG 1.1//EN" "http://www.w3.org/Graphics/SVG/1.1/DTD/svg11.dtd" [
	<!ENTITY ns_extend "http://ns.adobe.com/Extensibility/1.0/">
	<!ENTITY ns_ai "http://ns.adobe.com/AdobeIllustrator/10.0/">
	<!ENTITY ns_graphs "http://ns.adobe.com/Graphs/1.0/">
	<!ENTITY ns_vars "http://ns.adobe.com/Variables/1.0/">
	<!ENTITY ns_imrep "http://ns.adobe.com/ImageReplacement/1.0/">
	<!ENTITY ns_sfw "http://ns.adobe.com/SaveForWeb/1.0/">
	<!ENTITY ns_custom "http://ns.adobe.com/GenericCustomNamespace/1.0/">
	<!ENTITY ns_adobe_xpath "http://ns.adobe.com/XPath/1.0/">
]>
<svg version="1.1" id="Drinkaware_logo_suite" xmlns:x="&ns_extend;" xmlns:i="&ns_ai;" xmlns:graph="&ns_graphs;"
	 xmlns="http://www.w3.org/2000/svg" xmlns:xlink="http://www.w3.org/1999/xlink" x="0px" y="0px" viewBox="0 0 399.96234 56.69304"
	 style="enable-background:new 0 0 399.96234 56.69304;" xml:space="preserve">
<style type="text/css">
	.st0{fill:#FFFFFF;}
</style>
<metadata>
	<sfw  xmlns="&ns_sfw;">
		<slices></slices>
		<sliceSourceBounds  bottomLeftOrigin="true" height="56.69304" width="399.96234" x="-1739.77429" y="-106.78767">
			</sliceSourceBounds>
	</sfw>
</metadata>
<g>
	<g>
		<path class="st0" d="M38.75956,1.53411c0.19769,0.19913,0.29773,0.4727,0.29773,0.81974v52.17675
			c0,0.34897-0.10005,0.62254-0.29773,0.82071c-0.19913,0.19913-0.47318,0.29774-0.82022,0.29774h-9.09346
			c-0.64622,0-1.01887-0.37314-1.11795-1.11844l-0.22379-2.31035c-2.83234,2.98122-6.16203,4.4728-9.98762,4.4728
			c-3.27991,0-6.26112-0.85744-8.94459-2.57232c-2.68347-1.71392-4.78308-4.03683-6.29833-6.96876
			C0.7569,44.22004,0,40.99038,0,37.46202c0-3.52739,0.7569-6.75706,2.27361-9.69043
			c1.51525-2.93192,3.61486-5.25484,6.29833-6.96972c2.68347-1.71391,5.66468-2.57136,8.94459-2.57136
			c3.42829,0,6.50907,1.31758,9.24232,3.9508V2.35385c0-0.34704,0.09908-0.62061,0.29822-0.81974
			c0.19817-0.19817,0.47174-0.29774,0.81974-0.29774h10.06254C38.28638,1.23637,38.56042,1.33594,38.75956,1.53411z
			 M24.29911,43.05225c1.39054-1.59017,2.08702-3.47807,2.08702-5.66467s-0.69648-4.04937-2.08702-5.59023
			c-1.39151-1.5399-3.13053-2.31178-5.21755-2.31178s-3.81396,0.74578-5.18033,2.23735
			c-1.36734,1.4906-2.0498,3.37947-2.0498,5.66466c0,2.28617,0.68246,4.1992,2.0498,5.7391
			c1.36637,1.54087,3.09331,2.31033,5.18033,2.31033S22.9076,44.64338,24.29911,43.05225z"/>
		<path class="st0" d="M73.56786,21.436c0,0.09957-0.04979,0.29774-0.14887,0.59644l-2.7579,7.15533
			c-0.19913,0.64719-0.59644,0.96909-1.19287,0.96909c-0.29774,0-0.52151-0.02417-0.67039-0.07443
			c-1.09378-0.39779-2.1373-0.59692-3.13055-0.59692c-2.28666,0-4.06243,0.73419-5.32973,2.19967
			c-1.26682,1.46644-1.90047,3.31666-1.90047,5.55354v17.29188c0,0.34897-0.10005,0.62254-0.29822,0.82071
			c-0.19913,0.19913-0.4727,0.29774-0.81973,0.29774H47.25658c-0.34848,0-0.62205-0.0986-0.82022-0.29774
			c-0.19913-0.19817-0.29822-0.47174-0.29822-0.82071V20.24313c0-0.34704,0.09908-0.62061,0.29822-0.81974
			c0.19817-0.19817,0.47173-0.2987,0.82022-0.2987h9.68941c0.64525,0,1.0179,0.37314,1.11843,1.11844l0.29822,4.4728
			c2.13586-4.27367,5.29203-6.41099,9.4661-6.41099c1.04353,0,2.01261,0.18657,2.90678,0.55971
			c0.89465,0.37217,1.63995,0.83231,2.23639,1.37848C73.36873,20.6414,73.56786,21.0387,73.56786,21.436z"/>
		<path class="st0" d="M77.96503,19.42339c0.19817-0.19817,0.47173-0.2987,0.82022-0.2987h10.06254
			c0.34703,0,0.6206,0.10053,0.81973,0.2987c0.19817,0.19913,0.29822,0.4727,0.29822,0.81974v34.28747
			c0,0.34897-0.10005,0.62254-0.29822,0.82071c-0.19913,0.19913-0.4727,0.29774-0.81973,0.29774H78.78526
			c-0.34849,0-0.62206-0.0986-0.82022-0.29774c-0.19913-0.19817-0.29774-0.47174-0.29774-0.82071V20.24313
			C77.6673,19.89609,77.7659,19.62252,77.96503,19.42339z"/>
		<path class="st0" d="M127.08443,20.28083c2.03677,1.31661,3.65208,3.18036,4.84495,5.59028
			c1.19238,2.41089,1.78882,5.20603,1.78882,8.38542v20.27407c0,0.34897-0.10005,0.62254-0.29822,0.82071
			c-0.19914,0.19913-0.4727,0.29774-0.81973,0.29774H122.5377c-0.34848,0-0.62205-0.0986-0.82022-0.29774
			c-0.19913-0.19817-0.29822-0.47174-0.29822-0.82071V36.86558c0-2.63322-0.57178-4.47184-1.7139-5.51585
			c-1.14406-1.04304-2.50996-1.56553-4.09965-1.56553c-1.392,0-2.56022,0.37265-3.5032,1.11796
			c-0.94492,0.74531-1.63995,1.61531-2.08704,2.60905c-0.44756,0.99471-0.67087,1.83958-0.67087,2.53462v18.48475
			c0,0.34897-0.10004,0.62254-0.29822,0.82071c-0.19913,0.19913-0.47269,0.29774-0.81973,0.29774H98.16412
			c-0.34849,0-0.62206-0.0986-0.82022-0.29774c-0.19913-0.19817-0.29822-0.47174-0.29822-0.82071V20.24313
			c0-0.34704,0.09908-0.62061,0.29822-0.81974c0.19817-0.19817,0.47173-0.2987,0.82022-0.2987h9.76432
			c0.64526,0,1.01791,0.37314,1.11795,1.11844l0.29822,4.4728c1.19239-1.98748,2.7207-3.55253,4.58395-4.6961
			c1.86326-1.14261,4.01216-1.71488,6.4472-1.71488C122.8103,18.30494,125.04621,18.96422,127.08443,20.28083z"/>
		<path class="st0" d="M179.48418,54.97816c0,0.44757-0.29822,0.67088-0.89465,0.67088h-10.73341
			c-0.59644,0-1.04352-0.2233-1.34174-0.67088l-9.61497-12.7456l-3.80142,4.09967v8.19837
			c0,0.34897-0.10005,0.62254-0.29822,0.82071c-0.19913,0.19913-0.4727,0.29774-0.81973,0.29774h-10.06255
			c-0.34848,0-0.62204-0.0986-0.82022-0.29774c-0.19913-0.19817-0.2982-0.47174-0.2982-0.82071V2.35385
			c0-0.34704,0.09908-0.62061,0.2982-0.81974c0.19818-0.19817,0.47174-0.29774,0.82022-0.29774h10.06255
			c0.34703,0,0.62061,0.09957,0.81973,0.29774c0.19817,0.19913,0.29822,0.4727,0.29822,0.81974v29.07032l10.65849-11.70305
			c0.34703-0.3973,0.7946-0.59644,1.34174-0.59644h11.40428c0.29822,0,0.5336,0.0638,0.70808,0.18657
			c0.17352,0.1247,0.261,0.2871,0.261,0.4843c0,0.19913-0.12471,0.4234-0.37265,0.67087l-12.67159,13.64123l14.83305,20.19963
			C179.40926,54.50642,179.48418,54.72973,179.48418,54.97816z"/>
		<path class="st0" d="M217.97502,19.42339c0.1972,0.19913,0.29773,0.4727,0.29773,0.81974v34.28747
			c0,0.34897-0.10052,0.62254-0.29773,0.82071c-0.19913,0.19913-0.47366,0.29774-0.82069,0.29774h-9.09346
			c-0.64574,0-1.01888-0.37314-1.11748-1.11844l-0.22426-2.31035c-2.83234,2.98122-6.16154,4.4728-9.98714,4.4728
			c-3.27991,0-6.26112-0.85744-8.9446-2.57232c-2.68347-1.71392-4.78308-4.03683-6.29832-6.96876
			c-1.51671-2.93193-2.27361-6.16159-2.27361-9.68995c0-3.52739,0.7569-6.75706,2.27361-9.69043
			c1.51524-2.93192,3.61485-5.25484,6.29832-6.96972c2.68347-1.71391,5.66469-2.57136,8.9446-2.57136
			c3.82559,0,7.1548,1.59115,9.98714,4.77054l0.22426-2.75792c0.0986-0.74531,0.47174-1.11844,1.11748-1.11844h9.09346
			C217.50136,19.12468,217.77589,19.22522,217.97502,19.42339z M203.51462,43.0523c1.39008-1.59018,2.08704-3.47809,2.08704-5.66471
			s-0.69696-4.0494-2.08704-5.59028c-1.392-1.53991-3.13055-2.3118-5.21759-2.3118s-3.814,0.74579-5.18037,2.23737
			c-1.36736,1.49061-2.04984,3.37949-2.04984,5.66471c0,2.28619,0.68248,4.19923,2.04984,5.73915
			c1.36638,1.54088,3.09334,2.31035,5.18037,2.31035S202.12262,44.64344,203.51462,43.0523z"/>
		<path class="st0" d="M287.80771,19.46012c0.17303,0.22427,0.18655,0.53457,0.03671,0.93188l-12.67108,34.36287
			c-0.19913,0.59644-0.6467,0.89418-1.34174,0.89418h-9.54102c-0.64575,0-1.09332-0.29774-1.34079-0.89418l-7.52841-19.6786
			l-7.45398,19.6786c-0.19914,0.59644-0.64574,0.89418-1.34174,0.89418h-9.6145c-0.6467,0-1.09427-0.29774-1.34174-0.89418
			l-12.59763-34.36287c-0.0493-0.14887-0.07443-0.3219-0.07443-0.52104c0-0.49687,0.32286-0.74627,0.96957-0.74627h9.83875
			c0.69504,0,1.14261,0.2987,1.34174,0.89514l7.08086,21.16872l7.15529-21.16872c0.14983-0.44757,0.39729-0.69601,0.7453-0.74531
			c0.19817-0.09957,0.39729-0.14984,0.59644-0.14984h9.39117c0.19818,0,0.39731,0.05027,0.59644,0.14984
			c0.34705,0.0493,0.59644,0.29774,0.7453,0.74531l7.30511,21.16872l6.93201-21.16872
			c0.24841-0.59644,0.69504-0.89514,1.34174-0.89514h9.91318C287.34756,19.12468,287.63272,19.23682,287.80771,19.46012z"/>
		<path class="st0" d="M327.87131,19.42339c0.19815,0.19913,0.29773,0.4727,0.29773,0.81974v34.28747
			c0,0.34897-0.09958,0.62254-0.29773,0.82071c-0.19916,0.19913-0.47272,0.29774-0.81976,0.29774h-9.09344
			c-0.6467,0-1.01984-0.37314-1.11844-1.11844l-0.2233-2.31035c-2.83234,2.98122-6.16251,4.4728-9.98859,4.4728
			c-3.27893,0-6.26111-0.85744-8.94458-2.57232c-2.68253-1.71392-4.78308-4.03683-6.29785-6.96876
			c-1.51672-2.93193-2.27362-6.16159-2.27362-9.68995c0-3.52739,0.7569-6.75706,2.27362-9.69043
			c1.51477-2.93192,3.61533-5.25484,6.29785-6.96972c2.68347-1.71391,5.66565-2.57136,8.94458-2.57136
			c3.82608,0,7.15625,1.59115,9.98859,4.77054l0.2233-2.75792c0.0986-0.74531,0.47174-1.11844,1.11844-1.11844h9.09344
			C327.39859,19.12468,327.67215,19.22522,327.87131,19.42339z M313.41089,43.0523c1.39105-1.59018,2.08704-3.47809,2.08704-5.66471
			s-0.69598-4.0494-2.08704-5.59028c-1.392-1.53991-3.13007-2.3118-5.2171-2.3118s-3.81448,0.74579-5.18039,2.23737
			c-1.36783,1.49061-2.05029,3.37949-2.05029,5.66471c0,2.28619,0.68246,4.19923,2.05029,5.73915
			c1.36591,1.54088,3.09335,2.31035,5.18039,2.31035S312.01889,44.64344,313.41089,43.0523z"/>
		<path class="st0" d="M362.68008,21.436c0,0.09957-0.05026,0.29774-0.14886,0.59644l-2.7579,7.15533
			c-0.19916,0.64719-0.59644,0.96909-1.19287,0.96909c-0.29776,0-0.522-0.02417-0.67087-0.07443
			c-1.09332-0.39779-2.13733-0.59692-3.1301-0.59692c-2.28616,0-4.0629,0.73419-5.32922,2.19967
			c-1.2673,1.46644-1.90146,3.31666-1.90146,5.55354v17.29188c0,0.34897-0.09955,0.62254-0.29773,0.82071
			c-0.19913,0.19913-0.47269,0.29774-0.81973,0.29774h-10.06302c-0.34799,0-0.62158-0.0986-0.81973-0.29774
			c-0.19913-0.19817-0.29773-0.47174-0.29773-0.82071V20.24313c0-0.34704,0.0986-0.62061,0.29773-0.81974
			c0.19815-0.19817,0.47174-0.2987,0.81973-0.2987h9.68988c0.64575,0,1.01791,0.37314,1.11844,1.11844l0.29773,4.4728
			c2.13635-4.27367,5.29251-6.41099,9.46658-6.41099c1.04306,0,2.0126,0.18657,2.9068,0.55971
			c0.89417,0.37217,1.63947,0.83231,2.2359,1.37848C362.48096,20.6414,362.68008,21.0387,362.68008,21.436z"/>
		<path class="st0" d="M399.40359,40.66655c-0.37314,0.74627-1.13101,1.11844-2.27359,1.11844h-21.09369
			c0.49591,1.68975,1.47803,2.95706,2.94351,3.80193c1.46545,0.84488,3.3176,1.26635,5.5535,1.26635
			c1.14261,0,2.22336-0.12277,3.24222-0.37217c1.01791-0.24844,2.12473-0.74531,3.31665-1.49062
			c0.24841-0.19817,0.522-0.2987,0.81973-0.2987c0.34799,0,0.62155,0.14887,0.82068,0.44757l4.32297,4.24854
			c0.24841,0.2494,0.37216,0.49687,0.37216,0.74531c0,0.2494-0.17401,0.54714-0.52103,0.89417
			c-1.78931,1.74001-3.8522,3.10689-6.18671,4.09967c-2.33643,0.99374-4.77051,1.49061-7.30511,1.49061
			c-3.82703,0-7.22971-0.84487-10.21091-2.53365c-2.98218-1.68878-5.29251-3.98753-6.93201-6.89529
			c-1.64041-2.90679-2.46014-6.14902-2.46014-9.72668c0-3.52739,0.81973-6.75706,2.46014-9.69043
			c1.6395-2.93192,3.8754-5.24228,6.70773-6.93202c2.83234-1.68878,5.98755-2.53462,9.46658-2.53462
			c3.47711,0,6.5463,0.83327,9.2056,2.49692c2.65738,1.66558,4.7067,3.91406,6.14899,6.74642
			c1.44034,2.83284,2.16147,5.96293,2.16147,9.39173C399.96234,38.68003,399.77576,39.92124,399.40359,40.66655z
			 M378.23453,29.97126c-1.21802,0.91931-2.02518,2.29875-2.42249,4.1364h13.19312c-0.34802-1.83765-1.09332-3.21709-2.23593-4.1364
			c-1.14355-0.91979-2.53461-1.37993-4.17407-1.37993C380.90543,28.59133,379.45154,29.05147,378.23453,29.97126z"/>
		<circle class="st0" cx="83.81652" cy="7.2674" r="7.26737"/>
	</g>
</g>
</svg>
