<svg xmlns="http://www.w3.org/2000/svg" width="198.128" height="198.128" viewBox="0 0 198.128 198.128">
  <g>
    <polygon points="41.697 21.967 31.799 21.967 31.799 44.732 25.199 44.732 25.199 21.967 15.302 21.967 15.302 15.863 31.799 15.863 41.697 15.863 41.697 21.967" fill="#435158"/>
    <polygon points="72.418 15.863 72.418 44.733 65.818 44.733 65.818 32.938 52.621 32.938 52.621 44.733 46.022 44.733 46.022 15.863 52.621 15.863 52.621 26.833 65.818 26.833 65.818 15.863 72.418 15.863" fill="#435158"/>
    <polygon points="102.806 38.629 102.806 44.733 80.742 44.733 79.298 44.733 79.298 15.863 85.897 15.863 102.394 15.863 102.394 21.967 85.897 21.967 85.897 27.205 96.414 27.205 96.414 33.308 85.897 33.308 85.897 38.629 102.806 38.629" fill="#435158"/>
    <path d="M45.2,67.007V78.555a16.789,16.789,0,0,1-12.826,5.279c-10.228,0-16.043-6.805-16.043-14.889,0-8.248,5.938-15.053,15.383-15.053,6.145,0,10.846,2.928,12.991,7.423l-5.65,2.929C37.943,61.851,35.634,60,31.8,60c-5.485,0-8.784,3.713-8.784,8.95,0,5.073,3.134,8.95,9.526,8.95a10.53,10.53,0,0,0,6.6-2.021V72.409H32.211v-5.4Z" fill="#435158"/>
    <path d="M78.19,82.967V83.3H71.22l-6.558-9.775H57.569V83.3h-6.6V54.428H66.436c5.733,0,10.1,3.877,10.1,9.569A9.157,9.157,0,0,1,71.1,72.575ZM57.569,67.872h8.083c2.475,0,4.289-1.442,4.289-3.793,0-2.31-1.814-3.753-4.289-3.753H57.569Z" fill="#435158"/>
    <polygon points="106.105 77.194 106.105 83.298 84.041 83.298 82.597 83.298 82.597 54.428 89.196 54.428 105.693 54.428 105.693 60.531 89.196 60.531 89.196 65.77 99.713 65.77 99.713 71.873 89.196 71.873 89.196 77.194 106.105 77.194" fill="#435158"/>
    <path d="M140.249,82.927V83.3h-7.093l-2.063-5.032H117.607L115.586,83.3h-7.094v-.371l12.415-28.5h6.887ZM128.784,72.575,124.37,61.728l-4.453,10.847Z" fill="#435158"/>
    <polygon points="164.166 60.531 154.268 60.531 154.268 83.297 147.669 83.297 147.669 60.531 137.771 60.531 137.771 54.427 154.268 54.427 164.166 54.427 164.166 60.531" fill="#435158"/>
    <polygon points="15.178 93.364 15.178 92.993 22.065 92.993 27.592 112.006 33.819 93.818 38.644 93.818 44.831 112.006 50.358 92.993 57.245 92.993 57.245 93.364 48.007 121.862 42.274 121.862 36.211 104.128 30.19 121.862 24.416 121.862 15.178 93.364" fill="#435158"/>
    <rect x="61.485" y="92.993" width="6.599" height="28.869" fill="#435158"/>
    <polygon points="101.694 92.993 101.694 121.862 95.92 121.862 81.486 103.922 81.486 121.862 74.887 121.862 74.887 92.993 80.66 92.993 95.095 110.933 95.095 92.993 101.694 92.993" fill="#435158"/>
    <polygon points="132.083 115.758 132.083 121.862 110.019 121.862 108.575 121.862 108.575 92.993 115.174 92.993 131.67 92.993 131.67 99.096 115.174 99.096 115.174 104.335 125.69 104.335 125.69 110.438 115.174 110.438 115.174 115.758 132.083 115.758" fill="#435158"/>
    <path d="M16.333,145.993c0-8.29,5.732-14.971,14.971-14.971,6.145,0,10.888,3.011,12.949,7.423l-5.526,3.177a7.608,7.608,0,0,0-7.341-4.413c-5.362,0-8.372,3.876-8.372,8.784s3.134,8.784,8.5,8.784c3.548,0,6.269-1.731,7.425-4.412l5.525,3.134c-2.062,4.412-6.845,7.465-13.032,7.465-9.238,0-15.094-6.723-15.094-14.971" fill="#435158"/>
    <path d="M47.136,145.993c0-8.207,6.062-14.971,15.465-14.971s15.466,6.764,15.466,14.971S72.005,160.964,62.6,160.964,47.136,154.2,47.136,145.993m24.25,0a8.376,8.376,0,0,0-8.785-8.784c-5.444,0-8.784,3.793-8.784,8.784a8.375,8.375,0,0,0,8.784,8.784,8.4,8.4,0,0,0,8.785-8.784" fill="#435158"/>
    <path d="M79.175,157.045a4.022,4.022,0,1,1,4.042,3.918,3.919,3.919,0,0,1-4.042-3.918" fill="#435158"/>
    <path d="M198.128,198.128H0V0H198.128ZM1.819,196.309h194.49V1.819H1.819Z" fill="#435158"/>
  </g>
</svg>
