<?xml version="1.0" encoding="UTF-8"?>
<svg width="18px" height="26px" viewBox="0 0 18 26" version="1.1" xmlns="http://www.w3.org/2000/svg" xmlns:xlink="http://www.w3.org/1999/xlink">
    <!-- Generator: Sketch 58 (84663) - https://sketch.com -->
    <title>noun_Award_1659855</title>
    <desc>Created with Sketch.</desc>
    <g id="SIGNED-OFF" stroke="none" stroke-width="1" fill="none" fill-rule="evenodd">
        <g id="Homepage_v0102" transform="translate(-1368.000000, -1103.000000)" fill="#000000" fill-rule="nonzero">
            <g id="Group-31" transform="translate(1344.000000, 1036.000000)">
                <g id="Group-7" transform="translate(14.000000, 61.000000)">
                    <g id="noun_Award_1659855" transform="translate(10.000000, 6.000000)">
                        <path d="M13.536,17.121 C13.149508,17.3324192 12.7132818,17.4360359 12.273,17.421 C12.159,17.421 12.045,17.421 11.937,17.421 L9.693,22.641 L10.971,25.62 C11.0031493,25.6950005 11.0768994,25.7436274 11.1585,25.7436274 C11.2401006,25.7436274 11.3138507,25.6950005 11.346,25.62 L12.942,21.498 L17.028,23.181 C17.1040529,23.2111811 17.1907803,23.1930008 17.2483098,23.1348176 C17.3058393,23.0766343 17.3230385,22.989707 17.292,22.914 L14.415,16.2 C14.2084726,16.579236 13.9051906,16.8970093 13.536,17.121 L13.536,17.121 Z" id="Path"></path>
                        <path d="M8.682,18.42 C7.911,18.42 7.335,18.012 6.882,17.685 C6.72444793,17.5668072 6.55443622,17.4662086 6.375,17.385 C6.31483601,17.3725834 6.25338288,17.3675462 6.192,17.37 C6.045,17.37 5.892,17.37 5.742,17.397 C5.538,17.415 5.328,17.433 5.103,17.433 C4.66270343,17.448184 4.22643859,17.3445581 3.84,17.133 C3.71555321,17.0601726 3.59893797,16.9747218 3.492,16.878 L0.9,22.908 C0.868961545,22.983707 0.886160676,23.0706343 0.943690192,23.1288176 C1.00121971,23.1870008 1.08794712,23.2051811 1.164,23.175 L5.25,21.492 L6.846,25.614 C6.87814926,25.6890005 6.95189942,25.7376274 7.0335,25.7376274 C7.11510058,25.7376274 7.18885074,25.6890005 7.221,25.614 L10.665,17.568 L10.5,17.7 C10.029,18 9.453,18.42 8.682,18.42 Z" id="Path"></path>
                        <path d="M8.682,3.954 C6.0492586,3.954 3.915,6.0882586 3.915,8.721 C3.915,11.3537414 6.0492586,13.488 8.682,13.488 C11.3147414,13.488 13.449,11.3537414 13.449,8.721 C13.4456943,6.0896291 11.3133709,3.95730575 8.682,3.954 L8.682,3.954 Z" id="Path"></path>
                        <path d="M16.266,10.752 C16.449,10.074 17.274,9.456 17.274,8.718 C17.274,7.98 16.446,7.365 16.266,6.684 C16.086,6.003 16.479,5.034 16.125,4.419 C15.771,3.804 14.739,3.672 14.235,3.165 C13.731,2.658 13.605,1.635 12.981,1.272 C12.357,0.909 11.418,1.317 10.716,1.131 C10.014,0.945 9.42,0.123 8.685,0.123 C7.95,0.123 7.332,0.948 6.651,1.131 C5.97,1.314 5.001,0.918 4.386,1.272 C3.771,1.626 3.639,2.658 3.132,3.165 C2.625,3.672 1.602,3.795 1.242,4.419 C0.882,5.043 1.287,5.982 1.098,6.684 C0.909,7.386 0.09,7.98 0.09,8.718 C0.09,9.456 0.915,10.071 1.098,10.749 C1.281,11.427 0.885,12.399 1.242,13.014 C1.599,13.629 2.625,13.761 3.132,14.268 C3.639,14.775 3.762,15.798 4.386,16.158 C5.01,16.518 5.949,16.113 6.651,16.302 C7.353,16.491 7.947,17.31 8.685,17.31 C9.423,17.31 10.038,16.482 10.716,16.302 C11.394,16.122 12.366,16.515 12.981,16.161 C13.596,15.807 13.728,14.775 14.235,14.271 C14.742,13.767 15.765,13.641 16.128,13.017 C16.491,12.393 16.08,11.454 16.266,10.752 Z M8.682,14.595 C5.43787938,14.595 2.808,11.9651206 2.808,8.721 C2.808,5.47687938 5.43787938,2.847 8.682,2.847 C11.9261206,2.847 14.556,5.47687938 14.556,8.721 C14.5526928,11.9637497 11.9247497,14.5916928 8.682,14.595 L8.682,14.595 Z" id="Shape"></path>
                    </g>
                </g>
            </g>
        </g>
    </g>
</svg>