<?xml version="1.0" encoding="UTF-8"?>
<svg width="43px" height="40px" viewBox="0 0 43 40" version="1.1" xmlns="http://www.w3.org/2000/svg" xmlns:xlink="http://www.w3.org/1999/xlink">
    <!-- Generator: Sketch 58 (84663) - https://sketch.com -->
    <title>noun_basket_1925308</title>
    <desc>Created with Sketch.</desc>
    <g id="" stroke="none" stroke-width="1" fill="none" fill-rule="evenodd">
        <g id="Homepage_v0102" transform="translate(-1600.000000, -40.000000)" fill="#000000" fill-rule="nonzero">
            <g id="Group-9" transform="translate(-31.000000, 0.000000)">
                <g id="Group" transform="translate(1005.000000, 40.000000)">
                    <g id="Group-3" transform="translate(446.000000, 0.000000)">
                        <g id="noun_basket_1925308" transform="translate(180.000000, 0.000000)">
                            <path d="M39.7959184,15.3061224 L32.0387755,15.3061224 L22.7204082,0.66122449 C22.1571429,-0.220408163 20.7,-0.220408163 20.1367347,0.66122449 L10.8183673,15.3061224 L3.06122449,15.3061224 C1.37142857,15.3061224 0,16.677551 0,18.3673469 L5.48877551,37.5765306 C5.8622449,38.8897959 7.06530612,39.7959184 8.43061224,39.7959184 L34.4234694,39.7959184 C35.7887755,39.7959184 36.9918367,38.8897959 37.3653061,37.5765306 L42.8571429,18.3673469 C42.8571429,16.677551 41.4857143,15.3061224 39.7959184,15.3061224 Z M21.4285714,4.33469388 L28.4112245,15.3061224 L14.4459184,15.3061224 L21.4285714,4.33469388 Z" id="Shape"></path>
                        </g>
                    </g>
                </g>
            </g>
        </g>
    </g>
</svg>