<?xml version="1.0" encoding="UTF-8"?>
<svg width="38px" height="38px" viewBox="0 0 38 38" version="1.1" xmlns="http://www.w3.org/2000/svg" xmlns:xlink="http://www.w3.org/1999/xlink">
    <!-- Generator: Sketch 58 (84663) - https://sketch.com -->
    <title>Group 12</title>
    <desc>Created with Sketch.</desc>
    <g id="" stroke="none" stroke-width="1" fill="none" fill-rule="evenodd">
        <g id="Homepage_v0102" transform="translate(-282.000000, -256.000000)" fill="#357044">
            <g id="Group-13" transform="translate(265.000000, 242.000000)">
                <g id="Group-12" transform="translate(17.000000, 14.000000)">
                    <path d="M36.1761658,1.77635684e-14 L17.3667921,1.77635684e-14 C16.3763671,1.77635684e-14 15.5733762,0.80299087 15.5733762,1.79332887 L15.5733762,31.9031371 C15.5733762,32.8935621 16.3763671,33.6964659 17.3667921,33.6964659 L24.2893252,33.6964659 C24.2893252,30.4286377 26.947862,27.7700139 30.2157772,27.7700139 C33.4836925,27.7700139 36.1422292,30.4286377 36.1422292,33.6964659 L36.1761658,33.6964659 C37.1666778,33.6964659 37.9695817,32.8935621 37.9695817,31.9031371 L37.9695817,1.79332887 C37.9695817,0.80299087 37.1666778,1.77635684e-14 36.1761658,1.77635684e-14" id="Fill-1"></path>
                    <path d="M30.2157685,29.4233154 C27.8557864,29.4233154 25.9426354,31.3364664 25.9426354,33.6964485 C25.9426354,36.0565177 27.8557864,37.9696687 30.2157685,37.9696687 C32.5757507,37.9696687 34.4889017,36.0565177 34.4889017,33.6964485 C34.4889017,31.3364664 32.5757507,29.4233154 30.2157685,29.4233154" id="Fill-4"></path>
                    <path d="M9.23308976,37.9696513 C11.5930719,37.9696513 13.5062229,36.0565003 13.5062229,33.6965181 C13.5062229,31.336449 11.5930719,29.423298 9.23308976,29.423298 C6.8731076,29.423298 4.95995661,31.336449 4.95995661,33.6965181 C4.95995661,36.0565003 6.8731076,37.9696513 9.23308976,37.9696513" id="Fill-7"></path>
                    <path d="M9.23308976,27.7699965 C11.0412115,27.7699965 12.661812,28.5848217 13.7496959,29.8656217 L13.7496959,10.7136629 C13.7496959,8.81913352 11.7167228,7.61969419 10.0584439,8.53589389 L5.4991126,11.0548557 C2.10632824,12.9292842 4.88498131e-14,16.4994088 4.88498131e-14,20.3755714 L4.88498131e-14,31.9031197 C4.88498131e-14,32.8935447 0.802903854,33.6964485 1.79332887,33.6964485 L3.30663774,33.6964485 C3.30663774,30.4286203 5.96517449,27.7699965 9.23308976,27.7699965" id="Fill-10"></path>
                </g>
            </g>
        </g>
    </g>
</svg>