<?xml version="1.0" encoding="UTF-8"?>
<svg width="27px" height="24px" viewBox="0 0 27 24" version="1.1" xmlns="http://www.w3.org/2000/svg" xmlns:xlink="http://www.w3.org/1999/xlink">
    <!-- Generator: Sketch 58 (84663) - https://sketch.com -->
    <title>Path</title>
    <desc>Created with Sketch.</desc>
    <g id="" stroke="none" stroke-width="1" fill="none" fill-rule="evenodd">
        <g id="Homepage_v0102" transform="translate(-1362.000000, -1152.000000)" fill="#000000" fill-rule="nonzero">
            <g id="Group-31" transform="translate(1344.000000, 1036.000000)">
                <path d="M41.9417582,115.580828 C41.8123029,115.232331 41.4775046,115 41.1069945,115 C33.8441034,115 27.7507743,117.394797 24.3804715,121.572289 C21.7422609,124.838328 19.8048947,129.373252 21.8627883,133.613295 C22.2024969,134.30582 23.483212,135.717678 24.1617366,136.441479 C24.3313677,132.219308 25.7062727,128.225 28.0498608,124.829392 L28.0766447,124.829392 L30.2684575,124.829392 L30.2907774,124.829392 C30.2461377,124.874071 30.2019443,124.923218 30.1617685,124.967897 C28.1882441,127.121428 26.9298489,130.083649 26.3539958,133.242905 C25.8138546,136.164915 25.8584944,139.247323 26.4562209,142 L28.201636,141.616207 C27.8891576,140.186477 27.7463104,138.72994 27.7507743,137.295742 C39.8570808,134.698996 39.825833,128.515414 39.7901212,123.5337 C39.7722652,120.701047 39.7588733,118.252635 41.6917755,116.568235 C41.9730061,116.3225 42.0756775,115.929324 41.9417582,115.580828 Z" id="Path" transform="translate(31.500000, 128.500000) scale(1, -1) rotate(96.000000) translate(-31.500000, -128.500000) "></path>
            </g>
        </g>
    </g>
</svg>