<?xml version="1.0" encoding="UTF-8"?>
<svg width="28px" height="22px" viewBox="0 0 28 22" version="1.1" xmlns="http://www.w3.org/2000/svg" xmlns:xlink="http://www.w3.org/1999/xlink">
    <!-- Generator: Sketch 58 (84663) - https://sketch.com -->
    <title>Vg</title>
    <desc>Created with Sketch.</desc>
    <g id="SIGNED-OFF" stroke="none" stroke-width="1" fill="none" fill-rule="evenodd">
        <g id="Homepage_v0102" transform="translate(-1363.000000, -1251.000000)" fill="#1D1D1B" fill-rule="nonzero">
            <g id="Group-31" transform="translate(1344.000000, 1036.000000)">
                <path d="M33.736,215.072 C34.4720037,215.072 35.0799976,215.048 35.56,215 L35.56,215.48 C35.159998,215.624001 34.7680019,215.927998 34.384,216.392 C34,216.856002 33.6560015,217.503996 33.352,218.336 L28.288,232.04 C28.1119991,232.024 27.8320019,232.016 27.448,232.016 C27.0799982,232.016 26.8080009,232.024 26.632,232.04 L20.512,217.016 C20.303999,216.487997 20.0640014,216.104001 19.792,215.864 C19.5199986,215.623999 19.2560013,215.496 19,215.48 L19,215 C19.9600048,215.048 21.1759926,215.072 22.648,215.072 C24.2960082,215.072 25.5119961,215.048 26.296,215 L26.296,215.48 C25.687997,215.512 25.2560013,215.583999 25,215.696 C24.7439987,215.808001 24.616,216.031998 24.616,216.368 C24.616,216.640001 24.711999,217.015998 24.904,217.496 L29.128,228.248 L32.08,220.28 C32.5280022,219.047994 32.752,218.072004 32.752,217.352 C32.752,216.711997 32.5800017,216.248001 32.236,215.96 C31.8919983,215.671999 31.3920033,215.512 30.736,215.48 L30.736,215 C31.8240054,215.048 32.8239954,215.072 33.736,215.072 Z M45.424,221.888 C45.1039984,221.888 44.8320011,221.780001 44.608,221.564 C44.3839989,221.347999 44.272,221.040002 44.272,220.64 C44.272,220.255998 44.367999,219.864002 44.56,219.464 C44.1759981,219.624001 43.8600012,219.803999 43.612,220.004 C43.3639988,220.204001 43.1520009,220.455998 42.976,220.76 C43.4720025,221.352003 43.72,222.119995 43.72,223.064 C43.72,224.328006 43.2840044,225.279997 42.412,225.92 C41.5399956,226.560003 40.3840072,226.88 38.944,226.88 L38.512,226.88 C37.8559967,227.264002 37.528,227.687998 37.528,228.152 C37.528,228.664003 37.8479968,228.92 38.488,228.92 L41.104,228.92 C42.512007,228.92 43.6359958,229.179997 44.476,229.7 C45.3160042,230.220003 45.736,231.015995 45.736,232.088 C45.736,232.904004 45.4760026,233.643997 44.956,234.308 C44.4359974,234.972003 43.6480053,235.503998 42.592,235.904 C41.5359947,236.304002 40.2400077,236.504 38.704,236.504 C37.1519922,236.504 35.9080047,236.308002 34.972,235.916 C34.0359953,235.523998 33.568,234.96 33.568,234.224 C33.568,233.727998 33.7919978,233.284002 34.24,232.892 C34.6880022,232.499998 35.3519956,232.192001 36.232,231.968 L36.448,232.352 C35.8719971,232.832002 35.584,233.383997 35.584,234.008 C35.584,234.680003 35.887997,235.195998 36.496,235.556 C37.104003,235.916002 37.9439946,236.096 39.016,236.096 C40.1360056,236.096 41.0439965,235.872002 41.74,235.424 C42.4360035,234.975998 42.784,234.344004 42.784,233.528 C42.784,232.999997 42.588002,232.584002 42.196,232.28 C41.803998,231.975998 41.1200049,231.824 40.144,231.824 L38.656,231.824 C37.6319949,231.824 36.8320029,231.652002 36.256,231.308 C35.6799971,230.963998 35.392,230.440004 35.392,229.736 C35.392,229.143997 35.5999979,228.616002 36.016,228.152 C36.4320021,227.687998 37.0639958,227.240002 37.912,226.808 C36.7599942,226.663999 35.8480034,226.280003 35.176,225.656 C34.5039966,225.031997 34.168,224.168006 34.168,223.064 C34.168,221.799994 34.6039956,220.848003 35.476,220.208 C36.3480044,219.567997 37.5039928,219.248 38.944,219.248 C40.544008,219.248 41.7679958,219.623996 42.616,220.376 C42.9200015,219.943998 43.2959978,219.600001 43.744,219.344 C44.1920022,219.087999 44.6479977,218.96 45.112,218.96 C45.5920024,218.96 45.9719986,219.099999 46.252,219.38 C46.5320014,219.660001 46.672,220.023998 46.672,220.472 C46.672,220.920002 46.5480012,221.267999 46.3,221.516 C46.0519988,221.764001 45.7600017,221.888 45.424,221.888 Z M38.944,226.448 C39.3920022,226.448 39.7319988,226.192003 39.964,225.68 C40.1960012,225.167997 40.312,224.296006 40.312,223.064 C40.312,221.831994 40.1960012,220.960003 39.964,220.448 C39.7319988,219.935997 39.3920022,219.68 38.944,219.68 C38.4959978,219.68 38.1560012,219.935997 37.924,220.448 C37.6919988,220.960003 37.576,221.831994 37.576,223.064 C37.576,224.296006 37.6919988,225.167997 37.924,225.68 C38.1560012,226.192003 38.4959978,226.448 38.944,226.448 Z" id="Vg"></path>
            </g>
        </g>
    </g>
</svg>