<?xml version="1.0" encoding="UTF-8"?>
<svg width="17px" height="18px" viewBox="0 0 17 18" version="1.1" xmlns="http://www.w3.org/2000/svg" xmlns:xlink="http://www.w3.org/1999/xlink">
    <!-- Generator: Sketch 58 (84663) - https://sketch.com -->
    <title>V</title>
    <desc>Created with Sketch.</desc>
    <g id="SIGNED-OFF" stroke="none" stroke-width="1" fill="none" fill-rule="evenodd">
        <g id="Homepage_v0102" transform="translate(-1368.000000, -1205.000000)" fill="#1D1D1B" fill-rule="nonzero">
            <g id="Group-31" transform="translate(1344.000000, 1036.000000)">
                <path d="M38.736,169.072 C39.4720037,169.072 40.0799976,169.048 40.56,169 L40.56,169.48 C40.159998,169.624001 39.7680019,169.927998 39.384,170.392 C39,170.856002 38.6560015,171.503996 38.352,172.336 L33.288,186.04 C33.1119991,186.024 32.8320019,186.016 32.448,186.016 C32.0799982,186.016 31.8080009,186.024 31.632,186.04 L25.512,171.016 C25.303999,170.487997 25.0640014,170.104001 24.792,169.864 C24.5199986,169.623999 24.2560013,169.496 24,169.48 L24,169 C24.9600048,169.048 26.1759926,169.072 27.648,169.072 C29.2960082,169.072 30.5119961,169.048 31.296,169 L31.296,169.48 C30.687997,169.512 30.2560013,169.583999 30,169.696 C29.7439987,169.808001 29.616,170.031998 29.616,170.368 C29.616,170.640001 29.711999,171.015998 29.904,171.496 L34.128,182.248 L37.08,174.28 C37.5280022,173.047994 37.752,172.072004 37.752,171.352 C37.752,170.711997 37.5800017,170.248001 37.236,169.96 C36.8919983,169.671999 36.3920033,169.512 35.736,169.48 L35.736,169 C36.8240054,169.048 37.8239954,169.072 38.736,169.072 Z" id="V"></path>
            </g>
        </g>
    </g>
</svg>