<?xml version="1.0" encoding="UTF-8"?>
<svg width="22px" height="20px" viewBox="0 0 22 20" version="1.1" xmlns="http://www.w3.org/2000/svg" xmlns:xlink="http://www.w3.org/1999/xlink">
    <!-- Generator: Sketch 58 (84663) - https://sketch.com -->
    <title>Shape</title>
    <desc>Created with Sketch.</desc>
    <g id="SIGNED-OFF" stroke="none" stroke-width="1" fill="none" fill-rule="evenodd">
        <g id="Homepage_v0102" transform="translate(-1271.000000, -1349.000000)" fill="#000000" fill-rule="nonzero">
            <g id="Group-30" transform="translate(983.000000, 1036.000000)">
                <path d="M303.824366,313 C301.894354,313 300.126408,313.881077 298.992429,315.355904 C297.827934,313.883552 296.065348,313.00382 294.17898,313.00382 C290.777524,313.00382 288,315.843622 288,319.365524 C288,323.64804 291.116913,324.555288 298.483001,332.792746 C298.617231,332.930892 298.793455,333 298.969267,333 C299.14446,333 299.319653,332.931599 299.453883,332.794514 C306.721549,324.708005 310.006852,323.684751 309.999989,319.357601 C309.99448,315.875099 307.244655,313 303.824366,313 Z M298.970985,331.293728 C291.753561,323.318768 289.374603,322.748289 289.374603,319.365453 C289.374603,316.61994 291.543522,314.418451 294.17898,314.418451 C295.935861,314.418451 297.554388,315.397991 298.402449,316.974323 C298.524926,317.201949 298.75854,317.351129 299.01188,317.339033 C299.264944,317.335921 299.495809,317.190207 299.612925,316.959469 C300.398236,315.413553 302.051403,314.414632 303.824298,314.414632 C306.452814,314.414632 308.621183,316.622416 308.625383,319.359865 C308.630599,322.775876 306.191777,323.357601 298.970985,331.293728 Z" id="Shape"></path>
            </g>
        </g>
    </g>
</svg>