<?xml version="1.0" encoding="UTF-8"?>
<svg width="38px" height="37px" viewBox="0 0 38 37" version="1.1" xmlns="http://www.w3.org/2000/svg" xmlns:xlink="http://www.w3.org/1999/xlink">
    <!-- Generator: Sketch 58 (84663) - https://sketch.com -->
    <title>%</title>
    <desc>Created with Sketch.</desc>
    <g id="SIGNED-OFF" stroke="none" stroke-width="1" fill="none" fill-rule="evenodd">
        <g id="Homepage_v0102" transform="translate(-1242.000000, -257.000000)" fill="#357044" fill-rule="nonzero">
            <g id="Group-15" transform="translate(1225.000000, 242.000000)">
                <path d="M22.6124661,51.2493225 L46.0921409,15 L49.4390244,15 L25.9593496,51.2493225 L22.6124661,51.2493225 Z M24.1571816,16.2872629 C29.7696477,16.2872629 31.2628726,20.6124661 31.2628726,25.6585366 C31.2628726,30.7560976 29.7696477,34.7208672 24.1571816,34.7208672 C18.4932249,34.7208672 17,30.7560976 17,25.6585366 C17,20.6124661 18.4932249,16.2872629 24.1571816,16.2872629 Z M24.1571816,33.8455285 C26.4742547,33.8455285 26.7317073,32.6612466 26.7317073,25.6585366 C26.7317073,18.6558266 26.3712737,17.1626016 24.1571816,17.1626016 C21.8401084,17.1626016 21.5311653,18.6558266 21.5311653,25.6585366 C21.5311653,32.6612466 21.8915989,33.8455285 24.1571816,33.8455285 Z M47.8943089,31.5284553 C53.5067751,31.5284553 55,35.8536585 55,40.899729 C55,45.99729 53.5067751,49.9620596 47.8943089,49.9620596 C42.2303523,49.9620596 40.7371274,45.99729 40.7371274,40.899729 C40.7371274,35.8536585 42.2303523,31.5284553 47.8943089,31.5284553 Z M47.8943089,49.0867209 C50.2113821,49.0867209 50.4688347,47.902439 50.4688347,40.899729 C50.4688347,33.897019 50.1084011,32.403794 47.8943089,32.403794 C45.5772358,32.403794 45.2682927,33.897019 45.2682927,40.899729 C45.2682927,47.902439 45.6287263,49.0867209 47.8943089,49.0867209 Z" id="%"></path>
            </g>
        </g>
    </g>
</svg>