<?xml version="1.0" encoding="UTF-8"?>
<svg width="38px" height="38px" viewBox="0 0 38 38" version="1.1" xmlns="http://www.w3.org/2000/svg" xmlns:xlink="http://www.w3.org/1999/xlink">
    <!-- Generator: Sketch 58 (84663) - https://sketch.com -->
    <title>Group 10</title>
    <desc>Created with Sketch.</desc>
    <g id="SIGNED-OFF" stroke="none" stroke-width="1" fill="none" fill-rule="evenodd">
        <g id="Homepage_v0102" transform="translate(-762.000000, -256.000000)" fill="#357044" fill-rule="nonzero">
            <g id="Group-14" transform="translate(745.000000, 242.000000)">
                <g id="Group-10" transform="translate(17.000000, 14.000000)">
                    <path d="M38,18.9988203 C35.5758787,18.4115354 34.9159453,16.6673738 33.1517573,16.6479296 C31.9396882,16.6345621 30.727636,17.4430201 30.727636,18.9988203 C30.727636,20.4390714 31.9396967,21.3522363 33.1517573,21.3522363 C34.8775696,21.3522363 35.5758787,19.5869923 38,18.9988203 Z" id="Path"></path>
                    <path d="M5.32907052e-14,18.9988203 C2.42412133,18.4115354 3.08405044,16.6673738 4.84823844,16.6479296 C6.06030756,16.6345621 7.272364,17.4430201 7.272364,18.9988203 C7.272364,20.4390714 6.06030333,21.3522363 4.84823844,21.3522363 C3.12243044,21.3522363 2.42412133,19.5869923 5.32907052e-14,18.9988203 Z" id="Path"></path>
                    <path d="M18.9988178,-1.77635684e-15 C18.411532,2.42412091 16.66737,3.08405256 16.6479267,4.84824267 C16.6345422,6.06030756 17.4430176,7.27236358 18.9988178,7.27236358 C20.4390684,7.27236358 21.3522338,6.06030333 21.3522338,4.84824267 C21.3522338,3.12243044 19.5869902,2.42412091 18.9988178,-1.77635684e-15 Z" id="Path"></path>
                    <path d="M18.9988178,37.9999987 C18.411532,35.5758782 16.66737,34.9159474 16.6479267,33.1517573 C16.6345422,31.9396924 17.4430176,30.727636 18.9988178,30.727636 C20.4390684,30.727636 21.3522338,31.9396967 21.3522338,33.1517573 C21.3522338,34.8775696 19.5869902,35.5758782 18.9988178,37.9999987 Z" id="Path"></path>
                    <path d="M9.498974,2.54610809 C10.2024342,4.93910109 9.02190933,6.38269871 9.88716511,7.92025471 C10.481616,8.9766184 11.7877942,9.6220598 13.135156,8.84415969 C14.3824511,8.12403393 14.5672451,6.61777642 13.9612169,5.56810116 C13.0983087,4.07350416 11.2204078,4.3513724 9.498974,2.54610809 L9.498974,2.54610809 Z" id="Path"></path>
                    <path d="M28.498974,35.455072 C26.7783087,33.6493648 24.9378547,33.9499283 24.0389224,32.4318174 C23.4213127,31.3888229 23.5154302,29.9349214 24.862792,29.1570213 C26.1100871,28.4368955 27.5069418,29.0299885 28.1129742,30.0796638 C28.9758782,31.5742612 27.7962822,33.0616361 28.498974,35.455072 L28.498974,35.455072 Z" id="Path"></path>
                    <path d="M2.54449267,9.50059196 C4.350202,11.221256 4.04963889,13.0617096 5.56775156,13.9606444 C6.61074178,14.578255 8.06464711,14.4841362 8.84254511,13.1367735 C9.56267044,11.8894793 8.96957911,10.4926259 7.91990511,9.88659553 C6.425306,9.023689 4.93793111,10.2032804 2.54449267,9.50059196 Z" id="Path"></path>
                    <path d="M35.4534553,28.5005911 C33.0604644,27.7971347 31.6168656,28.9776575 30.0793096,28.1124017 C29.0229476,27.5179474 28.3775049,26.2117722 29.1554071,24.86441 C29.8755324,23.6171157 31.3817891,23.4323225 32.4314631,24.0383529 C33.9260622,24.901259 33.6481936,26.779159 35.4534553,28.5005911 L35.4534553,28.5005911 Z" id="Path"></path>
                    <path d="M35.4534596,9.50059196 C33.6477544,11.221256 33.9483176,13.0617096 32.4302049,13.9606444 C31.3872062,14.578255 29.9333093,14.4841362 29.1554071,13.1367735 C28.435286,11.8894793 29.0283731,10.4926259 30.0780513,9.88659553 C31.5726504,9.023689 33.0600211,10.2032804 35.4534596,9.50059196 L35.4534596,9.50059196 Z" id="Path"></path>
                    <path d="M2.54449267,28.5005911 C4.93748778,27.7971347 6.38108667,28.9776575 7.91864267,28.1124017 C8.97500467,27.5179474 9.62044733,26.2117722 8.84254933,24.86441 C8.12241978,23.6171157 6.61616311,23.4323225 5.56648911,24.0383529 C4.07189,24.901259 4.34975867,26.779159 2.54449267,28.5005911 Z" id="Path"></path>
                    <path d="M28.4989782,2.54610809 C27.795518,4.93910109 28.9760429,6.38269871 28.1107829,7.92025471 C27.5163278,8.9766184 26.210158,9.6220598 24.862792,8.84415969 C23.6155011,8.12403393 23.4307071,6.61777642 24.0367353,5.56810116 C24.8996436,4.07350416 26.7775444,4.3513724 28.4989782,2.54610809 Z" id="Path"></path>
                    <path d="M9.498974,35.455072 C11.2196393,33.6493648 13.0600933,33.9499283 13.9590256,32.4318174 C14.5766396,31.3888229 14.482522,29.9349214 13.135156,29.1570213 C11.8878651,28.4368955 10.4910062,29.0299885 9.884978,30.0796638 C9.022074,31.5742612 10.2016616,33.0616361 9.498974,35.455072 L9.498974,35.455072 Z" id="Path"></path>
                    <circle id="Oval" cx="18.9988178" cy="19.0000004" r="10.5555556"></circle>
                </g>
            </g>
        </g>
    </g>
</svg>