<?xml version="1.0" encoding="UTF-8"?>
<svg width="41px" height="40px" viewBox="0 0 41 40" version="1.1" xmlns="http://www.w3.org/2000/svg" xmlns:xlink="http://www.w3.org/1999/xlink">
    <!-- Generator: Sketch 58 (84663) - https://sketch.com -->
    <title>noun_User_398118</title>
    <desc>Created with Sketch.</desc>
    <g id="" stroke="none" stroke-width="1" fill="none" fill-rule="evenodd">
        <g id="Homepage_v0102" transform="translate(-1457.000000, -40.000000)" fill="#000000" fill-rule="nonzero">
            <g id="Group-9" transform="translate(-31.000000, 0.000000)">
                <g id="Group" transform="translate(1005.000000, 40.000000)">
                    <g id="Group-3" transform="translate(446.000000, 0.000000)">
                        <g id="noun_User_398118" transform="translate(37.000000, 0.000000)">
                            <path d="M20.444,23.0853333 C25.8297778,23.0853333 30.196,16.2168889 30.196,10.5653333 C30.196,4.91422222 25.8297778,0.329777778 20.444,0.329777778 C15.0573333,0.329777778 10.6928889,4.91288889 10.6928889,10.5653333 C10.6928889,16.2186667 15.0573333,23.0853333 20.444,23.0853333 Z M38.6533333,27.2 C35.6928889,24.24 27.9955556,21.7795556 27.9955556,21.7795556 C25.9235556,23.92 23.3226667,25.3328889 20.4444444,25.3328889 C17.5675556,25.3328889 14.9648889,23.92 12.8946667,21.7795556 C12.8946667,21.7795556 5.19644444,24.2408889 2.23555556,27.2 C1.24622222,28.1906667 0.426666667,32.5017778 0.426666667,32.5017778 C0.426666667,36.4591111 9.38888889,39.6697778 20.4444444,39.6697778 C31.4995556,39.6697778 40.4626667,36.4591111 40.4626667,32.5017778 C40.4622222,32.4982222 39.6435556,28.1906667 38.6533333,27.2 Z" id="Shape"></path>
                        </g>
                    </g>
                </g>
            </g>
        </g>
    </g>
</svg>